PathFileType	4	(X/Y/Z)	C:\Users\Basilio\Documents\Thesis Gigler\squatting_fais\c3dfiles\041\SLS_pre_front3\markers_experimental.trc
DataRate	CameraRate	NumFrames	NumMarkers	Units	OrigDataRate	OrigDataStartFrame	OrigNumFrames
200.000000	200.000000	4	62	mm	200.000000	811	1622
Frame#	Time	FHD			LBHD			RBHD			C7			T10			CLAV			LSHO			LUUPA			LMUPA			LDUPA			LLEP			LMEP			LRAD			LUL			LRFIN			RSHO			RUPA1			RMUPA			RDUPA			RLEP			RMEP			RRAD			RUL			RUFIN			LASI			RASI			USACR			LSACR			RSACR			LTHI1			LTHI2			LTHI3			LTHI4			LLFC			LMFC			LTIB1			LTIB2			LTIB3			LTIB4			LLMAL			LMMAL			LHEE			LMT1			LMT2			LMT5			RTHI			RTHI2			RTHI3			RTHI4			RLFC			RMFC			RTIB1			RTIB2			RTIB3			RTIB4			RLMAL			RMMAL			RHEE			RMT1			RMT2			RMT5			*61			
		X1	Y1	Z1	X2	Y2	Z2	X3	Y3	Z3	X4	Y4	Z4	X5	Y5	Z5	X6	Y6	Z6	X7	Y7	Z7	X8	Y8	Z8	X9	Y9	Z9	X10	Y10	Z10	X11	Y11	Z11	X12	Y12	Z12	X13	Y13	Z13	X14	Y14	Z14	X15	Y15	Z15	X16	Y16	Z16	X17	Y17	Z17	X18	Y18	Z18	X19	Y19	Z19	X20	Y20	Z20	X21	Y21	Z21	X22	Y22	Z22	X23	Y23	Z23	X24	Y24	Z24	X25	Y25	Z25	X26	Y26	Z26	X27	Y27	Z27	X28	Y28	Z28	X29	Y29	Z29	X30	Y30	Z30	X31	Y31	Z31	X32	Y32	Z32	X33	Y33	Z33	X34	Y34	Z34	X35	Y35	Z35	X36	Y36	Z36	X37	Y37	Z37	X38	Y38	Z38	X39	Y39	Z39	X40	Y40	Z40	X41	Y41	Z41	X42	Y42	Z42	X43	Y43	Z43	X44	Y44	Z44	X45	Y45	Z45	X46	Y46	Z46	X47	Y47	Z47	X48	Y48	Z48	X49	Y49	Z49	X50	Y50	Z50	X51	Y51	Z51	X52	Y52	Z52	X53	Y53	Z53	X54	Y54	Z54	X55	Y55	Z55	X56	Y56	Z56	X57	Y57	Z57	X58	Y58	Z58	X59	Y59	Z59	X60	Y60	Z60	X61	Y61	Z61	X62	Y62	Z62	

812	4.055	-226.4311828613282	1634.569213867188	-1106.8662109375	-395.8132934570314	1548.701171875	-1179.11279296875	-376.3179321289063	1558.689208984375	-1027.430541992188	-429.6168212890626	1424.9453125	-1105.845703125	-527.1955566406251	1133.931030273438	-1067.967163085938	-278.2923889160157	1350.435913085938	-1109.39013671875	-361.5959777832032	1430.313354492188	-1237.388916015625	-270.4604492187501	1427.897216796875	-1372.445434570313	-227.1198883056641	1444.892456054688	-1357.46142578125	-216.270248413086	1433.572875976563	-1416.640991210938	-172.8103790283203	1434.110107421875	-1438.532592773438	-126.6810607910157	1366.644775390625	-1411.523559570313	100.0255279541016	1488.9267578125	-1470.51220703125	73.78482818603517	1492.102905273438	-1539.157104492188	157.8732604980469	1537.493896484375	-1489.566528320313	-344.1564331054688	1453.817993164063	-997.3191528320315	-199.7459869384766	1467.224243164063	-884.7917480468752	-184.508773803711	1490.278076171875	-927.5688476562502	-134.4725646972657	1492.52880859375	-894.9163818359377	-89.94947814941408	1499.895874023438	-898.783630371094	-64.45068359375001	1419.16064453125	-916.6707763671877	171.5811157226563	1520.923095703125	-976.5442504882815	170.0862731933594	1540.935913085938	-903.7043457031252	249.0956420898438	1543.835815429688	-983.8538818359377	-384.3714904785157	930.3972778320315	-1159.412475585938	-393.4414672851564	940.1918945312502	-935.8916015625002	-564.0041503906251	1005.828552246094	-1055.90283203125	-578.4845581054689	978.0600585937502	-1082.829833984375	-583.0968627929689	979.888122558594	-1028.211669921875	-401.3093261718751	723.1519165039064	-1218.659057617188	-326.8185119628907	682.1685180664064	-1213.8955078125	-290.3935852050782	711.2313232421876	-1205.547485351563	-318.0238342285157	622.2243041992189	-1199.530883789063	-211.6553649902344	490.6344299316407	-1170.274658203125	-205.2768249511719	488.562713623047	-1053.712646484375	-232.6880645751954	312.1156005859376	-1090.157348632813	-291.9565124511719	278.8938903808594	-1148.850830078125	-258.3209228515626	266.6407470703126	-1121.145385742188	-287.3074035644532	200.8809814453126	-1078.388793945313	-377.1167297363282	129.2772979736328	-1109.958251953125	-339.5831298828126	138.9396209716797	-1027.038208007813	-448.0260620117189	116.8332977294922	-1063.627563476563	-242.146224975586	63.05775451660158	-1039.15673828125	-235.6391143798829	57.139949798584	-1084.584716796875	-285.1009521484376	43.81426239013673	-1137.996704101563	-346.2915344238282	706.7276000976564	-863.1936035156252	-280.4766235351563	703.8256225585939	-862.5493164062502	-261.2054138183594	730.8237915039064	-868.6797485351565	-236.0188293457032	633.4208984375001	-881.3406982421877	-136.7196502685547	556.9517211914064	-886.9908447265627	-108.7339477539063	564.6253051757814	-1003.554565429688	8.149267196655275	466.2870483398439	-895.4077758789065	4.987464904785157	353.0837097167969	-886.7821044921877	39.59107971191407	384.7518310546876	-885.526306152344	90.15459442138673	368.8927917480469	-912.1187133789065	140.325912475586	244.4081420898438	-902.688903808594	146.960693359375	285.8622741699219	-981.1458129882815	136.199447631836	176.173568725586	-957.791687011719	275.0607910156251	342.8182067871094	-954.4281005859377	271.2369689941407	345.6526489257813	-902.1722412109377	261.7329406738282	294.3188476562501	-858.9099121093752	-4217.432128906251	853.2833251953127	-3944.617675781251	
813	4.06	-226.0361938476563	1634.030639648438	-1106.95263671875	-395.7597656250001	1548.036010742188	-1179.120971679688	-375.9807434082032	1557.924438476563	-1027.231811523438	-429.4244995117189	1424.415405273438	-1105.843627929688	-527.3316650390626	1133.501831054688	-1067.867431640625	-278.2015075683594	1349.651489257813	-1109.36376953125	-361.2944030761719	1429.761962890625	-1237.338134765625	-270.1988525390626	1427.312377929688	-1372.381225585938	-226.8292999267579	1444.272094726563	-1357.358276367188	-216.0510253906251	1433.109375	-1416.610229492188	-172.4105224609375	1433.49365234375	-1438.400268554688	-126.1745071411133	1365.851318359375	-1411.2490234375	100.0494232177735	1488.34375	-1470.496704101563	74.25531005859376	1491.340576171875	-1539.1669921875	158.1120910644532	1536.823486328125	-1489.523681640625	-343.9042968750001	1453.2236328125	-997.3739013671877	-199.6841888427735	1466.701049804688	-884.9663696289065	-183.8172302246094	1489.646118164063	-927.9187011718752	-134.244873046875	1492.138305664063	-895.0764770507815	-89.50072479248048	1499.235595703125	-899.0242309570315	-64.14440155029298	1418.771606445313	-916.897155761719	171.8218688964844	1520.369750976563	-976.845153808594	170.5261993408203	1540.392456054688	-904.0227661132815	249.4131011962891	1543.357543945313	-984.2393188476565	-384.5677185058595	929.8027954101565	-1159.401611328125	-393.7510681152345	939.6265258789065	-935.7423095703127	-564.2254028320314	1005.359985351563	-1055.780395507813	-578.8903198242189	977.789733886719	-1082.671264648438	-583.2014770507814	979.5007324218752	-1027.93212890625	-401.5458068847657	722.7737426757814	-1218.555541992188	-326.8896789550782	681.9160766601564	-1213.848999023438	-290.4942626953126	711.0321044921876	-1205.524047851563	-317.9911499023438	621.9855957031251	-1199.526977539063	-211.5348663330079	490.5202941894532	-1170.310791015625	-205.0377197265626	488.5838317871095	-1053.81201171875	-232.4850311279297	311.9975280761719	-1090.3203125	-291.8507080078126	278.9453430175782	-1148.859741210938	-258.0927734375001	266.3739013671876	-1121.231811523438	-287.2494506835938	200.8425598144532	-1078.42626953125	-377.0970153808594	129.253646850586	-1109.951171875	-339.5901489257813	138.9322662353516	-1027.02978515625	-447.9706115722657	116.8442459106446	-1063.620849609375	-241.9668579101563	62.89585876464845	-1039.20751953125	-235.7438507080079	57.10118484497072	-1084.508178710938	-285.0384826660157	43.84500885009766	-1137.930297851563	-346.4989929199219	706.2928466796876	-863.050476074219	-280.8925170898438	703.3991699218751	-862.4968872070315	-261.4693298339844	730.2063598632814	-868.763122558594	-236.4922485351563	632.8682250976564	-881.382019042969	-136.9434967041016	556.5826416015626	-887.1273193359377	-109.0518341064453	564.1409912109376	-1003.759399414063	7.728047847747805	465.7717590332032	-895.6740722656252	4.658360958099366	352.4377746582032	-887.0217895507815	39.18659973144532	384.205780029297	-885.893737792969	89.86660766601564	368.7399902343751	-912.2319335937502	140.0280303955078	243.7544860839844	-903.0601196289065	146.601791381836	285.2336425781251	-981.5493164062502	135.7583923339844	175.7275695800782	-958.1306762695315	274.6308898925782	342.4665222167969	-954.8937988281252	270.8765563964844	345.0040893554688	-902.4461059570315	261.3270874023438	293.6426086425782	-859.8601074218752	-4216.935546875001	853.108581542969	-3944.740966796876	
814	4.065	-225.816390991211	1633.216064453125	-1106.896606445313	-395.4267578125001	1547.398559570313	-1179.128295898438	-375.7959289550782	1557.175415039063	-1027.344360351563	-429.2901000976564	1423.824462890625	-1105.811401367188	-527.4722290039064	1133.050048828125	-1067.73193359375	-278.1284484863282	1348.9111328125	-1109.41650390625	-361.0007019042969	1429.095825195313	-1237.3291015625	-269.9416809082032	1426.708374023438	-1372.290893554688	-226.6271057128907	1443.609008789063	-1357.258544921875	-215.8443908691407	1432.424682617188	-1416.46630859375	-171.9632873535157	1432.681640625	-1438.317749023438	-125.9624862670899	1365.245483398438	-1411.226684570313	100.4971923828125	1487.747924804688	-1470.374389648438	74.38215637207033	1490.694580078125	-1539.063720703125	158.4891662597657	1536.18701171875	-1489.42138671875	-343.6856079101563	1452.621948242188	-997.428894042969	-199.3631286621094	1466.13330078125	-885.1051025390627	-183.8214416503907	1489.0029296875	-928.077819824219	-134.01123046875	1491.730590820313	-895.2048339843752	-89.31466674804689	1498.57421875	-899.216735839844	-63.84688949584962	1418.099853515625	-917.0098876953127	172.112777709961	1519.755493164063	-977.1875610351565	170.672592163086	1539.89990234375	-904.346374511719	249.6847381591797	1542.7216796875	-984.6506958007815	-384.7610473632814	929.2554931640627	-1159.294311523438	-393.9566040039064	938.953308105469	-935.7364501953127	-564.5020141601564	1004.982849121094	-1055.664794921875	-579.1533813476564	977.452087402344	-1082.521362304688	-583.6763305664064	979.024597167969	-1027.937377929688	-401.7287597656251	722.4372558593751	-1218.51953125	-327.0629272460938	681.7080688476564	-1213.846923828125	-290.6045227050782	710.8282470703126	-1205.525390625	-318.0188598632813	621.6659545898439	-1199.4755859375	-211.3192443847657	490.4367980957032	-1170.3564453125	-204.6625976562501	488.2497558593751	-1053.968017578125	-232.2575378417969	311.8741455078126	-1090.419677734375	-291.7085266113282	278.9573669433594	-1148.877197265625	-258.0396728515626	266.3622436523438	-1121.217895507813	-287.2417907714844	200.8098754882813	-1078.4228515625	-377.0834350585938	129.2766418457032	-1109.9150390625	-339.6266479492188	138.9163513183594	-1027.019775390625	-447.9754638671876	116.8292083740235	-1063.620849609375	-242.1427154541016	63.04355621337892	-1039.152099609375	-235.6392059326172	57.14561080932619	-1084.495239257813	-285.0320129394532	43.94244384765626	-1138.060546875	-346.8810729980469	705.8468017578126	-863.0518188476565	-281.2400207519532	702.9396362304689	-862.4861450195315	-261.7586059570313	729.7318115234376	-868.7444458007815	-236.7232208251954	632.3244628906251	-881.6395263671877	-137.2029418945313	555.9776000976564	-887.3312988281252	-109.4768676757813	563.7203369140626	-1003.882690429688	7.382670402526857	465.0140075683595	-896.4645996093752	4.355676651000977	351.8276062011719	-887.057556152344	38.70808410644532	383.6292114257813	-886.1607666015627	89.55123138427736	368.0783386230469	-912.5686035156252	139.7362823486328	243.2322692871094	-903.430847167969	146.266586303711	284.6881408691407	-981.8768310546877	135.3141021728516	175.2198638916016	-958.5864868164065	274.3633422851563	342.0127868652344	-955.2591552734377	270.5638427734376	344.4761962890626	-902.836853027344	260.8668823242188	293.2364196777344	-859.7218017578127	-4216.667968750001	853.1437988281252	-3944.834228515626	
815	4.07	-225.3824615478516	1632.680419921875	-1106.99755859375	-395.0797119140626	1546.680908203125	-1179.192016601563	-375.5108032226563	1556.540771484375	-1027.305541992188	-429.0629272460939	1423.147827148438	-1105.82080078125	-527.6271972656251	1132.57470703125	-1067.640014648438	-277.9886779785157	1348.260131835938	-1109.373657226563	-360.7555541992188	1428.421264648438	-1237.288818359375	-269.6886291503907	1426.046020507813	-1372.2646484375	-226.2886657714844	1442.987060546875	-1357.148071289063	-215.3776092529297	1431.663330078125	-1416.347045898438	-171.6915893554688	1432.064453125	-1438.1611328125	-125.3804931640625	1364.466186523438	-1410.973999023438	101.0409851074219	1487.002075195313	-1470.2705078125	74.69605255126955	1489.990234375	-1539.003173828125	158.6895294189453	1535.581420898438	-1489.420043945313	-343.3500061035157	1452.03662109375	-997.557800292969	-199.2155303955079	1465.654296875	-885.2596435546877	-183.7763824462891	1488.260864257813	-928.207214355469	-133.7574768066407	1491.191284179688	-895.4119262695315	-89.07742309570314	1498.092651367188	-899.440368652344	-63.84677886962892	1417.210693359375	-916.500183105469	172.3845367431641	1519.181396484375	-977.4071044921877	171.0379791259766	1539.369995117188	-904.6534423828127	249.8555450439454	1542.174194335938	-984.981628417969	-385.0108032226564	928.8308715820315	-1159.170654296875	-394.2062377929689	938.3760375976565	-935.5444946289065	-564.7788085937501	1004.552917480469	-1055.516357421875	-579.4489746093751	977.0498046875002	-1082.338989257813	-583.9155883789064	978.5823974609377	-1027.8017578125	-401.8768615722657	722.0841674804689	-1218.491577148438	-327.1738281250001	681.5158081054689	-1213.879272460938	-290.7409362792969	710.6279907226564	-1205.49560546875	-318.0572204589844	621.4480590820314	-1199.5009765625	-211.2760162353516	490.3089294433595	-1170.397705078125	-204.5762329101563	488.140838623047	-1053.943481445313	-232.1912994384766	311.7846679687501	-1090.371704101563	-291.5150146484376	278.7539367675782	-1148.875244140625	-258.0292053222657	266.2277526855469	-1121.255859375	-287.1930236816407	200.7458953857422	-1078.4609375	-377.1255493164063	129.3007354736328	-1109.874755859375	-339.6082763671876	138.9219207763672	-1026.963500976563	-447.9906005859376	116.853515625	-1063.600952148438	-242.1858825683594	63.05037307739259	-1039.1064453125	-235.6607971191407	57.11242294311525	-1084.511474609375	-285.0682983398438	43.94468307495118	-1138.02880859375	-347.4185791015626	705.2491455078126	-862.893005371094	-281.5627136230469	702.2293090820314	-862.512878417969	-262.0004577636719	728.9251708984376	-868.806579589844	-236.9777984619141	631.5755004882814	-881.6324462890627	-137.5491333007813	555.4684448242189	-887.4978027343752	-109.8611679077149	563.1507568359376	-1004.07666015625	7.100090980529787	464.5566406250001	-896.6602783203127	3.825828075408936	351.2858276367188	-887.734069824219	38.41298294067384	383.1087036132813	-886.3817138671877	89.23359680175783	367.4962768554688	-912.802673339844	139.4698333740235	242.7157745361329	-903.908386230469	145.8443603515625	284.2058715820313	-982.138366699219	134.8992462158203	174.6807403564453	-958.9255981445315	273.8758850097657	341.4912414550782	-955.6784667968752	270.7764587402344	343.2802734375001	-903.1204833984377	260.7267456054688	292.7256469726563	-860.1685791015627	-4217.282226562501	853.2507324218752	-3944.610839843751	
